<svg width="25" height="22" viewBox="0 0 25 22" fill="none" xmlns="http://www.w3.org/2000/svg">
<g clip-path="url(#clip0_102_19)">
<path d="M21.875 22H18.75V17.4167C18.75 16.9305 18.5305 16.4642 18.1398 16.1203C17.7491 15.7765 17.2192 15.5834 16.6667 15.5834H8.33333C7.7808 15.5834 7.25089 15.7765 6.86019 16.1203C6.46949 16.4642 6.25 16.9305 6.25 17.4167V22H3.125V17.4167C3.12665 16.2016 3.67592 15.0366 4.65231 14.1774C5.62871 13.3182 6.95251 12.8348 8.33333 12.8334H16.6667C18.0475 12.8348 19.3713 13.3182 20.3477 14.1774C21.3241 15.0366 21.8733 16.2016 21.875 17.4167V22Z" fill="black"/>
<path d="M12.5 10.9999C11.2639 10.9999 10.0555 10.6773 9.02769 10.073C7.99988 9.46862 7.1988 8.60963 6.72576 7.60464C6.25271 6.59965 6.12894 5.49378 6.37009 4.42688C6.61125 3.35999 7.20651 2.37998 8.08059 1.61079C8.95466 0.841604 10.0683 0.31778 11.2807 0.105561C12.4931 -0.106657 13.7497 0.002261 14.8918 0.418543C16.0338 0.834825 17.0099 1.53977 17.6967 2.44424C18.3834 3.34871 18.75 4.41208 18.75 5.49988C18.7483 6.95812 18.0893 8.35623 16.9176 9.38736C15.7458 10.4185 14.1571 10.9984 12.5 10.9999ZM12.5 2.74988C11.8819 2.74988 11.2777 2.91116 10.7638 3.21334C10.2499 3.51551 9.8494 3.945 9.61288 4.4475C9.37636 4.95 9.31447 5.50293 9.43505 6.03638C9.55563 6.56983 9.85325 7.05983 10.2903 7.44442C10.7273 7.82902 11.2842 8.09093 11.8903 8.19704C12.4965 8.30315 13.1249 8.24869 13.6959 8.04055C14.2669 7.83241 14.755 7.47993 15.0983 7.0277C15.4417 6.57546 15.625 6.04378 15.625 5.49988C15.625 4.77054 15.2958 4.07106 14.7097 3.55534C14.1237 3.03961 13.3288 2.74988 12.5 2.74988Z" fill="black"/>
</g>
<defs>
<clipPath id="clip0_102_19">
<rect width="25" height="22" fill="white"/>
</clipPath>
</defs>
</svg>
