<svg width="25" height="22" viewBox="0 0 25 22" fill="none" xmlns="http://www.w3.org/2000/svg">
<path d="M19.8079 7.722V6.41667C19.8079 4.71486 19.0397 3.08276 17.6723 1.8794C16.3048 0.67604 14.4501 0 12.5163 0C10.5824 0 8.72774 0.67604 7.36029 1.8794C5.99284 3.08276 5.22461 4.71486 5.22461 6.41667V7.722C4.29686 8.07831 3.50721 8.66481 2.95221 9.40978C2.39722 10.1547 2.10094 11.0259 2.09961 11.9167V17.4167C2.10126 18.6318 2.65053 19.7967 3.62692 20.656C4.60332 21.5152 5.92711 21.9985 7.30794 22H17.7246C19.1054 21.9985 20.4292 21.5152 21.4056 20.656C22.382 19.7967 22.9313 18.6318 22.9329 17.4167V11.9167C22.9316 11.0259 22.6353 10.1547 22.0803 9.40978C21.5253 8.66481 20.7357 8.07831 19.8079 7.722ZM7.30794 6.41667C7.30794 5.20109 7.85668 4.0353 8.83343 3.17576C9.81018 2.31622 11.1349 1.83333 12.5163 1.83333C13.8976 1.83333 15.2224 2.31622 16.1991 3.17576C17.1759 4.0353 17.7246 5.20109 17.7246 6.41667V7.33333H7.30794V6.41667ZM20.8496 17.4167C20.8496 18.146 20.5204 18.8455 19.9343 19.3612C19.3483 19.8769 18.5534 20.1667 17.7246 20.1667H7.30794C6.47914 20.1667 5.68429 19.8769 5.09823 19.3612C4.51218 18.8455 4.18294 18.146 4.18294 17.4167V11.9167C4.18294 11.1873 4.51218 10.4878 5.09823 9.97212C5.68429 9.4564 6.47914 9.16667 7.30794 9.16667H17.7246C18.5534 9.16667 19.3483 9.4564 19.9343 9.97212C20.5204 10.4878 20.8496 11.1873 20.8496 11.9167V17.4167Z" fill="black"/>
<path d="M12.4999 12.8334C12.2237 12.8334 11.9587 12.93 11.7633 13.1019C11.568 13.2738 11.4583 13.5069 11.4583 13.75V15.5834C11.4583 15.8265 11.568 16.0596 11.7633 16.2316C11.9587 16.4035 12.2237 16.5 12.4999 16.5C12.7762 16.5 13.0411 16.4035 13.2365 16.2316C13.4318 16.0596 13.5416 15.8265 13.5416 15.5834V13.75C13.5416 13.5069 13.4318 13.2738 13.2365 13.1019C13.0411 12.93 12.7762 12.8334 12.4999 12.8334Z" fill="black"/>
</svg>
